<?xml version="1.0" encoding="UTF-8" standalone="no"?>
<!DOCTYPE svg PUBLIC "-//W3C//DTD SVG 1.1//EN"
 "http://www.w3.org/Graphics/SVG/1.1/DTD/svg11.dtd">
<!-- Generated by graphviz version 12.1.1 (20240910.0053)
 -->
<!-- Title: INFRA Pages: 1 -->
<svg width="1444pt" height="404pt"
 viewBox="0.00 0.00 1443.84 404.00" xmlns="http://www.w3.org/2000/svg" xmlns:xlink="http://www.w3.org/1999/xlink">
<g id="graph0" class="graph" transform="scale(1 1) rotate(0) translate(4 400)">
<title>INFRA</title>
<polygon fill="white" stroke="none" points="-4,4 -4,-400 1439.84,-400 1439.84,4 -4,4"/>
<!-- DiscoveryServerApplication -->
<g id="node1" class="node">
<title>DiscoveryServerApplication</title>
<path fill="#e6e6e6" stroke="black" stroke-width="2" d="M387.62,-72C387.62,-72 224.44,-72 224.44,-72 218.44,-72 212.44,-66 212.44,-60 212.44,-60 212.44,-12 212.44,-12 212.44,-6 218.44,0 224.44,0 224.44,0 387.62,0 387.62,0 393.62,0 399.62,-6 399.62,-12 399.62,-12 399.62,-60 399.62,-60 399.62,-66 393.62,-72 387.62,-72"/>
<text text-anchor="middle" x="306.03" y="-40.2" font-family="Arial" font-size="14.00">DiscoveryServerApplication</text>
<text text-anchor="middle" x="306.03" y="-23.4" font-family="Arial" font-size="14.00">(Spring::Application)</text>
</g>
<!-- EurekaServer -->
<g id="node2" class="node">
<title>EurekaServer</title>
<path fill="#e6e6e6" stroke="black" stroke-width="2" d="M395.79,-180C395.79,-180 216.27,-180 216.27,-180 210.27,-180 204.27,-174 204.27,-168 204.27,-168 204.27,-120 204.27,-120 204.27,-114 210.27,-108 216.27,-108 216.27,-108 395.79,-108 395.79,-108 401.79,-108 407.79,-114 407.79,-120 407.79,-120 407.79,-168 407.79,-168 407.79,-174 401.79,-180 395.79,-180"/>
<text text-anchor="middle" x="306.03" y="-148.2" font-family="Arial" font-size="14.00">EurekaServer</text>
<text text-anchor="middle" x="306.03" y="-131.4" font-family="Arial" font-size="14.00">(Spring::Cloud::EurekaServer)</text>
</g>
<!-- EurekaServer&#45;&gt;DiscoveryServerApplication -->
<g id="edge1" class="edge">
<title>EurekaServer&#45;&gt;DiscoveryServerApplication</title>
<path fill="none" stroke="black" d="M306.03,-107.7C306.03,-99.93 306.03,-91.57 306.03,-83.43"/>
<polygon fill="black" stroke="black" points="309.53,-83.66 306.03,-73.66 302.53,-83.66 309.53,-83.66"/>
</g>
<!-- ApiGateway -->
<g id="node3" class="node">
<title>ApiGateway</title>
<path fill="#e78f81" stroke="black" stroke-width="2" d="M380.62,-288C380.62,-288 231.44,-288 231.44,-288 225.44,-288 219.44,-282 219.44,-276 219.44,-276 219.44,-228 219.44,-228 219.44,-222 225.44,-216 231.44,-216 231.44,-216 380.62,-216 380.62,-216 386.62,-216 392.62,-222 392.62,-228 392.62,-228 392.62,-276 392.62,-276 392.62,-282 386.62,-288 380.62,-288"/>
<text text-anchor="middle" x="306.03" y="-256.2" font-family="Arial" font-size="14.00">ApiGateway</text>
<text text-anchor="middle" x="306.03" y="-239.4" font-family="Arial" font-size="14.00">(Spring::Cloud::Gateway)</text>
</g>
<!-- ApiGateway&#45;&gt;EurekaServer -->
<g id="edge2" class="edge">
<title>ApiGateway&#45;&gt;EurekaServer</title>
<path fill="none" stroke="black" d="M306.03,-215.7C306.03,-207.93 306.03,-199.57 306.03,-191.43"/>
<polygon fill="black" stroke="black" points="309.53,-191.66 306.03,-181.66 302.53,-191.66 309.53,-191.66"/>
</g>
<!-- UserService -->
<g id="node4" class="node">
<title>UserService</title>
<path fill="#b7e0ff" stroke="black" stroke-width="2" d="M130.06,-396C130.06,-396 12,-396 12,-396 6,-396 0,-390 0,-384 0,-384 0,-336 0,-336 0,-330 6,-324 12,-324 12,-324 130.06,-324 130.06,-324 136.06,-324 142.06,-330 142.06,-336 142.06,-336 142.06,-384 142.06,-384 142.06,-390 136.06,-396 130.06,-396"/>
<text text-anchor="middle" x="71.03" y="-364.2" font-family="Arial" font-size="14.00">UserService</text>
<text text-anchor="middle" x="71.03" y="-347.4" font-family="Arial" font-size="14.00">(Spring::Application)</text>
</g>
<!-- UserService&#45;&gt;EurekaServer -->
<g id="edge4" class="edge">
<title>UserService&#45;&gt;EurekaServer</title>
<path fill="none" stroke="black" d="M97.68,-323.66C121.7,-293.14 158.99,-248.9 197.03,-216 209.04,-205.62 222.67,-195.59 236.12,-186.49"/>
<polygon fill="black" stroke="black" points="237.72,-189.63 244.13,-181.19 233.86,-183.8 237.72,-189.63"/>
</g>
<!-- UserService&#45;&gt;ApiGateway -->
<g id="edge3" class="edge">
<title>UserService&#45;&gt;ApiGateway</title>
<path fill="none" stroke="black" d="M142.5,-326.76C166.01,-316.16 192.44,-304.24 217.09,-293.12"/>
<polygon fill="black" stroke="black" points="218.48,-296.33 226.15,-289.03 215.6,-289.95 218.48,-296.33"/>
</g>
<!-- PostsService -->
<g id="node5" class="node">
<title>PostsService</title>
<path fill="#b7e0ff" stroke="black" stroke-width="2" d="M290.06,-396C290.06,-396 172,-396 172,-396 166,-396 160,-390 160,-384 160,-384 160,-336 160,-336 160,-330 166,-324 172,-324 172,-324 290.06,-324 290.06,-324 296.06,-324 302.06,-330 302.06,-336 302.06,-336 302.06,-384 302.06,-384 302.06,-390 296.06,-396 290.06,-396"/>
<text text-anchor="middle" x="231.03" y="-364.2" font-family="Arial" font-size="14.00">PostsService</text>
<text text-anchor="middle" x="231.03" y="-347.4" font-family="Arial" font-size="14.00">(Spring::Application)</text>
</g>
<!-- PostsService&#45;&gt;EurekaServer -->
<g id="edge6" class="edge">
<title>PostsService&#45;&gt;EurekaServer</title>
<path fill="none" stroke="black" d="M214.72,-323.64C203.34,-293.51 192.97,-249.83 210.03,-216 215.34,-205.48 223.02,-196.13 231.76,-187.95"/>
<polygon fill="black" stroke="black" points="233.99,-190.64 239.27,-181.46 229.42,-185.35 233.99,-190.64"/>
</g>
<!-- PostsService&#45;&gt;ApiGateway -->
<g id="edge5" class="edge">
<title>PostsService&#45;&gt;ApiGateway</title>
<path fill="none" stroke="black" d="M256,-323.7C261.95,-315.3 268.37,-306.23 274.57,-297.47"/>
<polygon fill="black" stroke="black" points="277.37,-299.56 280.29,-289.38 271.66,-295.52 277.37,-299.56"/>
</g>
<!-- ConnectionsService -->
<g id="node6" class="node">
<title>ConnectionsService</title>
<path fill="#b7e0ff" stroke="black" stroke-width="2" d="M450.06,-396C450.06,-396 332,-396 332,-396 326,-396 320,-390 320,-384 320,-384 320,-336 320,-336 320,-330 326,-324 332,-324 332,-324 450.06,-324 450.06,-324 456.06,-324 462.06,-330 462.06,-336 462.06,-336 462.06,-384 462.06,-384 462.06,-390 456.06,-396 450.06,-396"/>
<text text-anchor="middle" x="391.03" y="-364.2" font-family="Arial" font-size="14.00">ConnectionsService</text>
<text text-anchor="middle" x="391.03" y="-347.4" font-family="Arial" font-size="14.00">(Spring::Application)</text>
</g>
<!-- ConnectionsService&#45;&gt;EurekaServer -->
<g id="edge8" class="edge">
<title>ConnectionsService&#45;&gt;EurekaServer</title>
<path fill="none" stroke="black" d="M403.61,-323.51C412.09,-293.29 418.96,-249.57 402.03,-216 396.73,-205.48 389.05,-196.13 380.3,-187.95"/>
<polygon fill="black" stroke="black" points="382.64,-185.35 372.79,-181.46 378.07,-190.64 382.64,-185.35"/>
</g>
<!-- ConnectionsService&#45;&gt;ApiGateway -->
<g id="edge7" class="edge">
<title>ConnectionsService&#45;&gt;ApiGateway</title>
<path fill="none" stroke="black" d="M362.73,-323.7C355.85,-315.12 348.4,-305.84 341.24,-296.91"/>
<polygon fill="black" stroke="black" points="344.14,-294.94 335.16,-289.32 338.68,-299.31 344.14,-294.94"/>
</g>
<!-- NotificationService -->
<g id="node7" class="node">
<title>NotificationService</title>
<path fill="#b7e0ff" stroke="black" stroke-width="2" d="M610.06,-396C610.06,-396 492,-396 492,-396 486,-396 480,-390 480,-384 480,-384 480,-336 480,-336 480,-330 486,-324 492,-324 492,-324 610.06,-324 610.06,-324 616.06,-324 622.06,-330 622.06,-336 622.06,-336 622.06,-384 622.06,-384 622.06,-390 616.06,-396 610.06,-396"/>
<text text-anchor="middle" x="551.03" y="-364.2" font-family="Arial" font-size="14.00">NotificationService</text>
<text text-anchor="middle" x="551.03" y="-347.4" font-family="Arial" font-size="14.00">(Spring::Application)</text>
</g>
<!-- NotificationService&#45;&gt;EurekaServer -->
<g id="edge10" class="edge">
<title>NotificationService&#45;&gt;EurekaServer</title>
<path fill="none" stroke="black" d="M523.52,-323.51C498.74,-292.89 460.26,-248.58 421.03,-216 408.49,-205.59 394.29,-195.6 380.25,-186.57"/>
<polygon fill="black" stroke="black" points="382.19,-183.65 371.86,-181.28 378.46,-189.57 382.19,-183.65"/>
</g>
<!-- NotificationService&#45;&gt;ApiGateway -->
<g id="edge9" class="edge">
<title>NotificationService&#45;&gt;ApiGateway</title>
<path fill="none" stroke="black" d="M479.51,-327.68C476.65,-326.44 473.81,-325.21 471.03,-324 447.73,-313.89 422.55,-303.03 399.05,-292.91"/>
<polygon fill="black" stroke="black" points="400.7,-289.81 390.13,-289.07 397.94,-296.24 400.7,-289.81"/>
</g>
<!-- Kafka -->
<g id="node8" class="node">
<title>Kafka</title>
<path fill="#cce0ac" stroke="black" stroke-width="2" d="M730.22,-288C730.22,-288 637.84,-288 637.84,-288 631.84,-288 625.84,-282 625.84,-276 625.84,-276 625.84,-228 625.84,-228 625.84,-222 631.84,-216 637.84,-216 637.84,-216 730.22,-216 730.22,-216 736.22,-216 742.22,-222 742.22,-228 742.22,-228 742.22,-276 742.22,-276 742.22,-282 736.22,-288 730.22,-288"/>
<text text-anchor="middle" x="684.03" y="-256.2" font-family="Arial" font-size="14.00">Kafka</text>
<text text-anchor="middle" x="684.03" y="-239.4" font-family="Arial" font-size="14.00">(Apache::Kafka)</text>
</g>
<!-- KafkaUI -->
<g id="node9" class="node">
<title>KafkaUI</title>
<path fill="#e6e6e6" stroke="black" stroke-width="2" d="M715.82,-396C715.82,-396 652.24,-396 652.24,-396 646.24,-396 640.24,-390 640.24,-384 640.24,-384 640.24,-336 640.24,-336 640.24,-330 646.24,-324 652.24,-324 652.24,-324 715.82,-324 715.82,-324 721.82,-324 727.82,-330 727.82,-336 727.82,-336 727.82,-384 727.82,-384 727.82,-390 721.82,-396 715.82,-396"/>
<text text-anchor="middle" x="684.03" y="-364.2" font-family="Arial" font-size="14.00">KafkaUI</text>
<text text-anchor="middle" x="684.03" y="-347.4" font-family="Arial" font-size="14.00">(Kafbat::UI)</text>
</g>
<!-- KafkaUI&#45;&gt;Kafka -->
<g id="edge11" class="edge">
<title>KafkaUI&#45;&gt;Kafka</title>
<path fill="none" stroke="black" d="M684.03,-323.7C684.03,-315.93 684.03,-307.57 684.03,-299.43"/>
<polygon fill="black" stroke="black" points="687.53,-299.66 684.03,-289.66 680.53,-299.66 687.53,-299.66"/>
</g>
<!-- NotificationDB -->
<g id="node10" class="node">
<title>NotificationDB</title>
<path fill="#ffcfb3" stroke="black" stroke-width="2" d="M914.68,-389.45C914.68,-393.07 876.74,-396 830.03,-396 783.32,-396 745.38,-393.07 745.38,-389.45 745.38,-389.45 745.38,-330.55 745.38,-330.55 745.38,-326.93 783.32,-324 830.03,-324 876.74,-324 914.68,-326.93 914.68,-330.55 914.68,-330.55 914.68,-389.45 914.68,-389.45"/>
<path fill="none" stroke="black" stroke-width="2" d="M914.68,-389.45C914.68,-385.84 876.74,-382.91 830.03,-382.91 783.32,-382.91 745.38,-385.84 745.38,-389.45"/>
<text text-anchor="middle" x="830.03" y="-364.2" font-family="Arial" font-size="14.00">NotificationDB</text>
<text text-anchor="middle" x="830.03" y="-347.4" font-family="Arial" font-size="14.00">(PostgreSQL::Database)</text>
</g>
<!-- PostsDB -->
<g id="node11" class="node">
<title>PostsDB</title>
<path fill="#ffcfb3" stroke="black" stroke-width="2" d="M1101.68,-389.45C1101.68,-393.07 1063.74,-396 1017.03,-396 970.32,-396 932.38,-393.07 932.38,-389.45 932.38,-389.45 932.38,-330.55 932.38,-330.55 932.38,-326.93 970.32,-324 1017.03,-324 1063.74,-324 1101.68,-326.93 1101.68,-330.55 1101.68,-330.55 1101.68,-389.45 1101.68,-389.45"/>
<path fill="none" stroke="black" stroke-width="2" d="M1101.68,-389.45C1101.68,-385.84 1063.74,-382.91 1017.03,-382.91 970.32,-382.91 932.38,-385.84 932.38,-389.45"/>
<text text-anchor="middle" x="1017.03" y="-364.2" font-family="Arial" font-size="14.00">PostsDB</text>
<text text-anchor="middle" x="1017.03" y="-347.4" font-family="Arial" font-size="14.00">(PostgreSQL::Database)</text>
</g>
<!-- UserDB -->
<g id="node12" class="node">
<title>UserDB</title>
<path fill="#ffcfb3" stroke="black" stroke-width="2" d="M1288.68,-389.45C1288.68,-393.07 1250.74,-396 1204.03,-396 1157.32,-396 1119.38,-393.07 1119.38,-389.45 1119.38,-389.45 1119.38,-330.55 1119.38,-330.55 1119.38,-326.93 1157.32,-324 1204.03,-324 1250.74,-324 1288.68,-326.93 1288.68,-330.55 1288.68,-330.55 1288.68,-389.45 1288.68,-389.45"/>
<path fill="none" stroke="black" stroke-width="2" d="M1288.68,-389.45C1288.68,-385.84 1250.74,-382.91 1204.03,-382.91 1157.32,-382.91 1119.38,-385.84 1119.38,-389.45"/>
<text text-anchor="middle" x="1204.03" y="-364.2" font-family="Arial" font-size="14.00">UserDB</text>
<text text-anchor="middle" x="1204.03" y="-347.4" font-family="Arial" font-size="14.00">(PostgreSQL::Database)</text>
</g>
<!-- ConnectionsDB -->
<g id="node13" class="node">
<title>ConnectionsDB</title>
<path fill="#ffcfb3" stroke="black" stroke-width="2" d="M1435.84,-389.45C1435.84,-393.07 1406.79,-396 1371.03,-396 1335.27,-396 1306.22,-393.07 1306.22,-389.45 1306.22,-389.45 1306.22,-330.55 1306.22,-330.55 1306.22,-326.93 1335.27,-324 1371.03,-324 1406.79,-324 1435.84,-326.93 1435.84,-330.55 1435.84,-330.55 1435.84,-389.45 1435.84,-389.45"/>
<path fill="none" stroke="black" stroke-width="2" d="M1435.84,-389.45C1435.84,-385.84 1406.79,-382.91 1371.03,-382.91 1335.27,-382.91 1306.22,-385.84 1306.22,-389.45"/>
<text text-anchor="middle" x="1371.03" y="-364.2" font-family="Arial" font-size="14.00">ConnectionsDB</text>
<text text-anchor="middle" x="1371.03" y="-347.4" font-family="Arial" font-size="14.00">(Neo4j::Database)</text>
</g>
</g>
</svg>
