<?xml version="1.0" encoding="UTF-8" standalone="no"?>
<!DOCTYPE svg PUBLIC "-//W3C//DTD SVG 1.1//EN"
 "http://www.w3.org/Graphics/SVG/1.1/DTD/svg11.dtd">
<!-- Generated by graphviz version 12.1.1 (20240910.0053)
 -->
<!-- Title: INFRA Pages: 1 -->
<svg width="470pt" height="404pt"
 viewBox="0.00 0.00 470.06 404.00" xmlns="http://www.w3.org/2000/svg" xmlns:xlink="http://www.w3.org/1999/xlink">
<g id="graph0" class="graph" transform="scale(1 1) rotate(0) translate(4 400)">
<title>INFRA</title>
<polygon fill="white" stroke="none" points="-4,4 -4,-400 466.06,-400 466.06,4 -4,4"/>
<!-- DiscoveryServerApplication -->
<g id="node1" class="node">
<title>DiscoveryServerApplication</title>
<path fill="#e6e6e6" stroke="black" stroke-width="2" d="M357.62,-72C357.62,-72 194.44,-72 194.44,-72 188.44,-72 182.44,-66 182.44,-60 182.44,-60 182.44,-12 182.44,-12 182.44,-6 188.44,0 194.44,0 194.44,0 357.62,0 357.62,0 363.62,0 369.62,-6 369.62,-12 369.62,-12 369.62,-60 369.62,-60 369.62,-66 363.62,-72 357.62,-72"/>
<text text-anchor="middle" x="276.03" y="-40.2" font-family="Arial" font-size="14.00">DiscoveryServerApplication</text>
<text text-anchor="middle" x="276.03" y="-23.4" font-family="Arial" font-size="14.00">(Spring::Application)</text>
</g>
<!-- EurekaServer -->
<g id="node2" class="node">
<title>EurekaServer</title>
<path fill="#e6e6e6" stroke="black" stroke-width="2" d="M365.79,-180C365.79,-180 186.27,-180 186.27,-180 180.27,-180 174.27,-174 174.27,-168 174.27,-168 174.27,-120 174.27,-120 174.27,-114 180.27,-108 186.27,-108 186.27,-108 365.79,-108 365.79,-108 371.79,-108 377.79,-114 377.79,-120 377.79,-120 377.79,-168 377.79,-168 377.79,-174 371.79,-180 365.79,-180"/>
<text text-anchor="middle" x="276.03" y="-148.2" font-family="Arial" font-size="14.00">EurekaServer</text>
<text text-anchor="middle" x="276.03" y="-131.4" font-family="Arial" font-size="14.00">(Spring::Cloud::EurekaServer)</text>
</g>
<!-- EurekaServer&#45;&gt;DiscoveryServerApplication -->
<g id="edge1" class="edge">
<title>EurekaServer&#45;&gt;DiscoveryServerApplication</title>
<path fill="none" stroke="black" d="M276.03,-107.7C276.03,-99.93 276.03,-91.57 276.03,-83.43"/>
<polygon fill="black" stroke="black" points="279.53,-83.66 276.03,-73.66 272.53,-83.66 279.53,-83.66"/>
</g>
<!-- ApiGateway -->
<g id="node3" class="node">
<title>ApiGateway</title>
<path fill="#e78f81" stroke="black" stroke-width="2" d="M293.62,-288C293.62,-288 144.44,-288 144.44,-288 138.44,-288 132.44,-282 132.44,-276 132.44,-276 132.44,-228 132.44,-228 132.44,-222 138.44,-216 144.44,-216 144.44,-216 293.62,-216 293.62,-216 299.62,-216 305.62,-222 305.62,-228 305.62,-228 305.62,-276 305.62,-276 305.62,-282 299.62,-288 293.62,-288"/>
<text text-anchor="middle" x="219.03" y="-256.2" font-family="Arial" font-size="14.00">ApiGateway</text>
<text text-anchor="middle" x="219.03" y="-239.4" font-family="Arial" font-size="14.00">(Spring::Cloud::Gateway)</text>
</g>
<!-- ApiGateway&#45;&gt;EurekaServer -->
<g id="edge2" class="edge">
<title>ApiGateway&#45;&gt;EurekaServer</title>
<path fill="none" stroke="black" d="M238.01,-215.7C242.43,-207.48 247.2,-198.61 251.82,-190.03"/>
<polygon fill="black" stroke="black" points="254.76,-191.94 256.42,-181.48 248.6,-188.63 254.76,-191.94"/>
</g>
<!-- UserService -->
<g id="node4" class="node">
<title>UserService</title>
<path fill="#b7e0ff" stroke="black" stroke-width="2" d="M130.06,-396C130.06,-396 12,-396 12,-396 6,-396 0,-390 0,-384 0,-384 0,-336 0,-336 0,-330 6,-324 12,-324 12,-324 130.06,-324 130.06,-324 136.06,-324 142.06,-330 142.06,-336 142.06,-336 142.06,-384 142.06,-384 142.06,-390 136.06,-396 130.06,-396"/>
<text text-anchor="middle" x="71.03" y="-364.2" font-family="Arial" font-size="14.00">UserService</text>
<text text-anchor="middle" x="71.03" y="-347.4" font-family="Arial" font-size="14.00">(Spring::Application)</text>
</g>
<!-- UserService&#45;&gt;EurekaServer -->
<g id="edge4" class="edge">
<title>UserService&#45;&gt;EurekaServer</title>
<path fill="none" stroke="black" d="M76.06,-323.57C82.21,-291.93 95.43,-246.07 123.03,-216 134.56,-203.43 148.77,-192.91 163.83,-184.15"/>
<polygon fill="black" stroke="black" points="165.43,-187.26 172.51,-179.38 162.06,-181.13 165.43,-187.26"/>
</g>
<!-- UserService&#45;&gt;ApiGateway -->
<g id="edge3" class="edge">
<title>UserService&#45;&gt;ApiGateway</title>
<path fill="none" stroke="black" d="M120.31,-323.7C133.23,-314.46 147.27,-304.39 160.61,-294.84"/>
<polygon fill="black" stroke="black" points="162.39,-297.87 168.48,-289.2 158.31,-292.18 162.39,-297.87"/>
</g>
<!-- PostsService -->
<g id="node5" class="node">
<title>PostsService</title>
<path fill="#b7e0ff" stroke="black" stroke-width="2" d="M290.06,-396C290.06,-396 172,-396 172,-396 166,-396 160,-390 160,-384 160,-384 160,-336 160,-336 160,-330 166,-324 172,-324 172,-324 290.06,-324 290.06,-324 296.06,-324 302.06,-330 302.06,-336 302.06,-336 302.06,-384 302.06,-384 302.06,-390 296.06,-396 290.06,-396"/>
<text text-anchor="middle" x="231.03" y="-364.2" font-family="Arial" font-size="14.00">PostsService</text>
<text text-anchor="middle" x="231.03" y="-347.4" font-family="Arial" font-size="14.00">(Spring::Application)</text>
</g>
<!-- PostsService&#45;&gt;EurekaServer -->
<g id="edge6" class="edge">
<title>PostsService&#45;&gt;EurekaServer</title>
<path fill="none" stroke="black" d="M286.86,-323.73C298.25,-313.68 308.68,-301.68 315.03,-288 328.5,-258.97 322.98,-247 315.03,-216 312.82,-207.38 309.32,-198.68 305.3,-190.47"/>
<polygon fill="black" stroke="black" points="308.45,-188.94 300.7,-181.72 302.25,-192.2 308.45,-188.94"/>
</g>
<!-- PostsService&#45;&gt;ApiGateway -->
<g id="edge5" class="edge">
<title>PostsService&#45;&gt;ApiGateway</title>
<path fill="none" stroke="black" d="M227.03,-323.7C226.15,-315.93 225.21,-307.57 224.29,-299.43"/>
<polygon fill="black" stroke="black" points="227.78,-299.19 223.18,-289.65 220.83,-299.98 227.78,-299.19"/>
</g>
<!-- ConnectionsService -->
<g id="node6" class="node">
<title>ConnectionsService</title>
<path fill="#b7e0ff" stroke="black" stroke-width="2" d="M450.06,-396C450.06,-396 332,-396 332,-396 326,-396 320,-390 320,-384 320,-384 320,-336 320,-336 320,-330 326,-324 332,-324 332,-324 450.06,-324 450.06,-324 456.06,-324 462.06,-330 462.06,-336 462.06,-336 462.06,-384 462.06,-384 462.06,-390 456.06,-396 450.06,-396"/>
<text text-anchor="middle" x="391.03" y="-364.2" font-family="Arial" font-size="14.00">ConnectionsService</text>
<text text-anchor="middle" x="391.03" y="-347.4" font-family="Arial" font-size="14.00">(Spring::Application)</text>
</g>
<!-- ConnectionsService&#45;&gt;EurekaServer -->
<g id="edge8" class="edge">
<title>ConnectionsService&#45;&gt;EurekaServer</title>
<path fill="none" stroke="black" d="M379.9,-323.58C369.79,-293.79 353.38,-250.65 333.03,-216 327.74,-206.99 321.38,-197.9 314.86,-189.37"/>
<polygon fill="black" stroke="black" points="317.64,-187.24 308.7,-181.56 312.14,-191.58 317.64,-187.24"/>
</g>
<!-- ConnectionsService&#45;&gt;ApiGateway -->
<g id="edge7" class="edge">
<title>ConnectionsService&#45;&gt;ApiGateway</title>
<path fill="none" stroke="black" d="M333.76,-323.7C318.46,-314.28 301.8,-304.01 286.03,-294.29"/>
<polygon fill="black" stroke="black" points="287.99,-291.38 277.64,-289.12 284.31,-297.34 287.99,-291.38"/>
</g>
</g>
</svg>
